<?xml version="1.0" encoding="UTF-8"?>
<svg version="1.1" xmlns="http://www.w3.org/2000/svg" width="250" height="90">
<path d="M0 0 C0 0.66 0 1.32 0 2 C-2.31 2.33 -4.62 2.66 -7 3 C-5.83984375 3.07476562 -4.6796875 3.14953125 -3.484375 3.2265625 C8.73621565 4.18475748 19.79910201 6.3900723 28.46875 15.8671875 C36.19092068 26.6230681 38.05226831 37.11706151 37 50 C34.89914046 61.02318469 28.9182344 71.46631824 20.18359375 78.56640625 C16.3869118 81.05904002 12.31537975 82.6349309 8 84 C7.40574219 84.19207031 6.81148437 84.38414063 6.19921875 84.58203125 C-5.28932026 86.76546584 -18.0693071 85.4374115 -28.296875 79.71484375 C-36.75788437 73.82821126 -44.61839635 65.1739474 -47 55 C-47.39814745 51.14344882 -47.5205953 47.31306893 -47.5625 43.4375 C-47.57732422 42.46796387 -47.59214844 41.49842773 -47.60742188 40.49951172 C-47.44088436 28.81214676 -42.68597521 19.6699928 -35 11 C-24.84393082 1.76720984 -13.41964791 -0.77920536 0 0 Z M-22 7 C-22.04254356 8.99954746 -22.04080783 11.00041636 -22 13 C-20.86298403 14.36532549 -20.86298403 14.36532549 -17.83984375 14.09765625 C-16.55207031 14.08605469 -15.26429687 14.07445312 -13.9375 14.0625 C-12.64714844 14.05347656 -11.35679688 14.04445313 -10.02734375 14.03515625 C-9.02832031 14.02355469 -8.02929688 14.01195312 -7 14 C-7.44472656 13.52949219 -7.88945313 13.05898438 -8.34765625 12.57421875 C-8.91355469 11.95160156 -9.47945312 11.32898438 -10.0625 10.6875 C-10.63097656 10.07261719 -11.19945312 9.45773438 -11.78515625 8.82421875 C-12.18605469 8.22222656 -12.58695313 7.62023437 -13 7 C-12.67 6.01 -12.34 5.02 -12 4 C-16.33094958 4 -18.27034861 4.96564469 -22 7 Z M-8 6 C-4.50606716 10.8225028 -4.50606716 10.8225028 0.375 13.9375 C3.92237353 14.02196127 7.45131088 14.06014727 11 14 C11 13.34 11 12.68 11 12 C11.763125 12.515625 12.52625 13.03125 13.3125 13.5625 C14.6428125 14.2740625 14.6428125 14.2740625 16 15 C16.99 14.67 17.98 14.34 19 14 C10.07940266 9.12585919 2.2547766 5.81913974 -8 6 Z M-32.0625 13.5625 C-33.41021484 14.83287109 -33.41021484 14.83287109 -34.78515625 16.12890625 C-37.38239296 19.49569458 -37.74610363 21.80811917 -38 26 C-37.443125 25.278125 -36.88625 24.55625 -36.3125 23.8125 C-30.16580311 16.33678756 -30.16580311 16.33678756 -26.1875 15.1875 C-25.1046875 15.0946875 -25.1046875 15.0946875 -24 15 C-24.33 13.02 -24.66 11.04 -25 9 C-28.29698106 9 -29.76072345 11.34020926 -32.0625 13.5625 Z M2 17 C2.66 18.65 3.32 20.3 4 22 C5.32 20.35 6.64 18.7 8 17 C6.02 17 4.04 17 2 17 Z M-19 23 C-18.855625 24.258125 -18.71125 25.51625 -18.5625 26.8125 C-18.44068359 27.87404297 -18.44068359 27.87404297 -18.31640625 28.95703125 C-18.02829265 31.19396393 -18.02829265 31.19396393 -17 34 C-15.55989519 33.74337755 -14.1229313 33.46909179 -12.6875 33.1875 C-11.88699219 33.03667969 -11.08648437 32.88585938 -10.26171875 32.73046875 C-7.73679476 31.91499244 -6.61930266 31.08046329 -5 29 C-5 28.34 -5 27.68 -5 27 C-3.02 26.34 -1.04 25.68 1 25 C-0.07401108 22.08482708 -0.77810176 20.22189824 -3 18 C-9.11058425 16.93064776 -13.83058289 20.13945298 -19 23 Z M25 22 C26.49170266 26.9723422 28.60457417 31.41845739 31 36 C31.83414558 33.61519919 32.11903995 32.36680914 31.328125 29.9296875 C30.97234375 29.25164063 30.6165625 28.57359375 30.25 27.875 C29.90453125 27.19179688 29.5590625 26.50859375 29.203125 25.8046875 C27.96744792 23.70052083 27.96744792 23.70052083 25 22 Z M-42 28 C-41 31 -41 31 -41 31 Z M-23 28 C-23.721875 28.928125 -24.44375 29.85625 -25.1875 30.8125 C-27.20902948 33.3349916 -28.19472579 34.09361817 -31.25 35.5625 C-34.21827659 36.73059135 -34.21827659 36.73059135 -35 39.5625 C-35 40.366875 -35 41.17125 -35 42 C-34.34 42.66 -33.68 43.32 -33 44 C-28.71 41.36 -24.42 38.72 -20 36 C-20.66 33.36 -21.32 30.72 -22 28 C-22.33 28 -22.66 28 -23 28 Z M-44 36 C-44.20589721 43.56407533 -44.20589721 43.56407533 -43 51 C-42.67 50.34 -42.34 49.68 -42 49 C-41.01 48.67 -40.02 48.34 -39 48 C-39.144375 47.443125 -39.28875 46.88625 -39.4375 46.3125 C-40.28774139 42.81706319 -41 39.6090264 -41 36 C-41.99 36 -42.98 36 -44 36 Z M-11.0625 36.5 C-12.16271484 36.91765625 -12.16271484 36.91765625 -13.28515625 37.34375 C-13.85105469 37.5603125 -14.41695312 37.776875 -15 38 C-14.27991594 42.60853797 -12.68704061 46.67237409 -11 51 C-5.72 49.68 -0.44 48.36 5 47 C3.05207532 44.64278158 3.05207532 44.64278158 -0.5 44.5625 C-1.655 44.376875 -2.81 44.19125 -4 44 C-6.29013653 40.5647952 -6.17842973 39.014669 -6 35 C-7.78881237 35 -9.4083068 35.86983116 -11.0625 36.5 Z M32 36 C30.2520497 41.24385089 29.80607799 45.47322267 30 51 C30.99 51.495 30.99 51.495 32 52 C33.50156874 48.99686252 33.09281204 46.20932478 33.0625 42.875 C33.05347656 41.59367187 33.04445313 40.31234375 33.03515625 38.9921875 C33.02355469 38.00476562 33.01195313 37.01734375 33 36 C32.67 36 32.34 36 32 36 Z M-25.5625 43.25 C-26.57441406 43.85328125 -27.58632813 44.4565625 -28.62890625 45.078125 C-29.41136719 45.71234375 -30.19382812 46.3465625 -31 47 C-31 48.32 -31 49.64 -31 51 C-29.845 50.979375 -28.69 50.95875 -27.5 50.9375 C-23.25649453 50.92992231 -19.19823356 51.40025235 -15 52 C-15.66498383 47.61110675 -17.18757677 44.0188515 -19 40 C-21.26285674 40 -23.72583117 42.13345547 -25.5625 43.25 Z M-2.25 52.3125 C-3.12140625 52.55613281 -3.9928125 52.79976562 -4.890625 53.05078125 C-5.58671875 53.36402344 -6.2828125 53.67726562 -7 54 C-7.33 54.99 -7.66 55.98 -8 57 C-6.5696137 59.58269624 -6.5696137 59.58269624 -4.5625 62.1875 C-3.90378906 63.08855469 -3.24507812 63.98960938 -2.56640625 64.91796875 C-2.04949219 65.60503906 -1.53257813 66.29210937 -1 67 C2.3 66.34 5.6 65.68 9 65 C9.22226864 63.23086176 9.42733873 61.45955629 9.625 59.6875 C9.74101563 58.70136719 9.85703125 57.71523438 9.9765625 56.69921875 C10.25476995 53.77342584 10.25476995 53.77342584 8 51 C4.36113514 50.57299035 1.23894087 51.29402175 -2.25 52.3125 Z M-42 53 C-40.25267359 59.26480445 -38.02879721 63.88233868 -34 69 C-32.68 67.35 -31.36 65.7 -30 64 C-30.804375 63.34 -31.60875 62.68 -32.4375 62 C-35.75148924 58.12020772 -35.74577025 55.99985175 -36 51 C-38.08428209 51 -40.09817964 52.21976601 -42 53 Z M25 53 C23.21590198 56.06246747 22.77119979 58.22079273 22.875 61.75 C22.89304687 62.54921875 22.91109375 63.3484375 22.9296875 64.171875 C22.95289062 64.77515625 22.97609375 65.3784375 23 66 C23.99 66.33 24.98 66.66 26 67 C27.75747614 62.49646738 28.19294408 58.82360189 28 54 C27.01 53.67 26.02 53.34 25 53 Z M30 55 C31 57 31 57 31 57 Z M-10 63 C-10.33 65.97 -10.66 68.94 -11 72 C-9.02 71.01 -7.04 70.02 -5 69 C-6.485 66.03 -6.485 66.03 -8 63 C-8.66 63 -9.32 63 -10 63 Z M-33 70 C-26.20150675 75.7588278 -26.20150675 75.7588278 -18 79 C-17.76862148 76.83476788 -17.76862148 76.83476788 -19.6875 75.25 C-20.450625 74.5075 -21.21375 73.765 -22 73 C-22.88369061 71.92374398 -23.75852527 70.84016405 -24.625 69.75 C-25.800625 68.38875 -25.800625 68.38875 -27 67 C-29.76223278 67 -30.89281454 68.31425163 -33 70 Z M2 70 C3.2491742 73.45925163 4.67527795 76.14693203 7 79 C9.31 78.34 11.62 77.68 14 77 C14 76.01 14 75.02 14 74 C13.34 74 12.68 74 12 74 C11.34 72.35 10.68 70.7 10 69 C6.95613276 68.91773332 4.92824652 69.02391783 2 70 Z M18.3125 70.375 C16.7905543 71.91117258 16.7905543 71.91117258 17 74 C20.16115776 72.63016497 20.9927092 72.0109362 23 69 C20.02482427 68.68416352 20.02482427 68.68416352 18.3125 70.375 Z M-10 76 C-8.6910428 79.12197478 -8.6910428 79.12197478 -6 81 C-4.62657169 81.0689472 -3.24997898 81.08467708 -1.875 81.0625 C-0.59625 81.041875 0.6825 81.02125 2 81 C1.40353695 77.65980694 0.31705841 75.49529367 -2 73 C-5.57575896 73 -7.05295935 74.08840607 -10 76 Z " fill="#3d3d3d" transform="translate(47,4)"/>
<path d="M0 0 C5.79078655 4.83919437 8.90316706 10.55198203 10 18 C10 20.97 10 23.94 10 27 C-1.55 27 -13.1 27 -25 27 C-22.27482312 33.01096243 -22.27482312 33.01096243 -17.04296875 35.66796875 C-13.21800716 36.28961643 -9.58001428 35.3780503 -6 34 C-5.34 33.34 -4.68 32.68 -4 32 C-0.85602129 32.10841306 0.35151428 33.28902285 2.8125 35.3125 C5 38 5 38 4.875 40.03125 C3.74383609 42.5763688 2.69612165 43.04721743 0.1875 44.1875 C-0.49957031 44.51105469 -1.18664062 44.83460937 -1.89453125 45.16796875 C-9.85008479 48.31181458 -17.46528876 47.57418028 -25.34375 44.46484375 C-30.88451538 41.40927461 -34.55677361 36.70604947 -37.5 31.1875 C-38.85040779 22.57865034 -39.0592308 14.42495563 -34 7 C-25.64862959 -2.67100004 -11.50565406 -6.95963189 0 0 Z M-24 12 C-24.33 13.65 -24.66 15.3 -25 17 C-17.74 17 -10.48 17 -3 17 C-4.00717215 11.96413924 -4.34046908 11.10505654 -8 8 C-14.53765598 4.73117201 -19.52252872 7.08570226 -24 12 Z " fill="#3d3d3d" transform="translate(133,26)"/>
<path d="M0 0 C2.5 1.6875 2.5 1.6875 4 3 C2.44499019 6.81684226 -0.03595495 9.19195732 -3 12 C-3.53625 11.71125 -4.0725 11.4225 -4.625 11.125 C-10.05432981 8.383851 -10.05432981 8.383851 -15.875 8.875 C-16.57625 9.24625 -17.2775 9.6175 -18 10 C-17.80102011 11.96993537 -17.80102011 11.96993537 -17 14 C-15.27617665 15.02100651 -15.27617665 15.02100651 -13.10546875 15.52734375 C-12.31462891 15.76259766 -11.52378906 15.99785156 -10.70898438 16.24023438 C-9.03988443 16.70179029 -7.37061581 17.16273672 -5.70117188 17.62304688 C-0.66741436 19.1213348 2.13524025 20.31562907 5 25 C6.73571782 28.47143564 6.46645793 32.20443818 6 36 C3.1071341 41.57909852 0.29756769 44.24734851 -5.625 46.1875 C-13.28918815 47.86849294 -21.03010654 47.95630316 -28 44 C-29.90374254 42.44365573 -31.38199241 40.87082127 -33 39 C-31.93283928 37.79794536 -30.84561663 36.61367667 -29.75 35.4375 C-29.14671875 34.77621094 -28.5434375 34.11492188 -27.921875 33.43359375 C-26 32 -26 32 -23.875 32.1875 C-22 33 -22 33 -20.25 34.5625 C-16.7646022 36.78928193 -14.09261404 36.33004952 -10 36 C-9.34 35.34 -8.68 34.68 -8 34 C-8 32.68 -8 31.36 -8 30 C-9.24136719 29.62488281 -10.48273438 29.24976563 -11.76171875 28.86328125 C-13.40390142 28.3471667 -15.04581461 27.83019416 -16.6875 27.3125 C-17.50412109 27.06822266 -18.32074219 26.82394531 -19.16210938 26.57226562 C-24.24376942 24.94695735 -27.62879174 23.3533713 -31 19 C-32.7613134 14.47902505 -32.40199013 10.10077581 -30.5 5.6875 C-27.83416617 1.04080353 -24.17525889 -1.05377285 -19.046875 -2.58203125 C-12.25842127 -3.96822314 -6.16844016 -3.0911822 0 0 Z " fill="#3d3d3d" transform="translate(178,26)"/>
<path d="M0 0 C0.66 0.33 1.32 0.66 2 1 C2 4.63 2 8.26 2 12 C-0.89256173 12.72314043 -3.10698851 13.11473554 -6 13.3125 C-9.07544781 13.66757964 -9.90765644 13.92659871 -12.4375 15.9375 C-15.18782187 19.56792487 -15.1784285 22.00550799 -15.31640625 26.5390625 C-15.35830078 27.84101562 -15.40019531 29.14296875 -15.44335938 30.484375 C-15.48317299 31.86458045 -15.52288522 33.24478883 -15.5625 34.625 C-15.60569407 36.01303415 -15.64930865 37.40105528 -15.69335938 38.7890625 C-15.79971934 42.19258129 -15.90038918 45.596277 -16 49 C-20.29 49 -24.58 49 -29 49 C-29 33.16 -29 17.32 -29 1 C-24.71 1 -20.42 1 -16 1 C-15.67 2.32 -15.34 3.64 -15 5 C-14.071875 4.360625 -13.14375 3.72125 -12.1875 3.0625 C-7.8846925 0.27833044 -5.05043626 -0.21491218 0 0 Z " fill="#3d3d3d" transform="translate(217,23)"/>
<path d="M0 0 C3.96 0 7.92 0 12 0 C12 15.84 12 31.68 12 48 C8.04 48 4.08 48 0 48 C0 32.16 0 16.32 0 0 Z " fill="#3d3d3d" transform="translate(224,24)"/>
<path d="M0 0 C3.8425303 0.72047443 5.45767292 1.57152696 8 4.5625 C8.7470731 8.06528615 8.69957151 11.28681078 6.9375 14.5 C3.92563699 16.15166681 1.41790842 16.44464109 -2 16.5625 C-4.94755732 15.21687601 -6.54277272 14.47695456 -8 11.5625 C-8.54035146 7.50986402 -8.34199395 6.02519769 -5.875 2.6875 C-3 0.5625 -3 0.5625 0 0 Z " fill="#3d3d3d" transform="translate(230,0.4375)"/>
<path d="M0 0 C3.3 0 6.6 0 10 0 C10 1.98 10 3.96 10 6 C8.35 6 6.7 6 5 6 C5 4.68 5 3.36 5 2 C4.34 2 3.68 2 3 2 C2.67 3.32 2.34 4.64 2 6 C2 4.68 2 3.36 2 2 C1.34 2 0.68 2 0 2 C0 1.34 0 0.68 0 0 Z " fill="#3d3d3d" transform="translate(240,24)"/>
</svg>
